#!OML:ASF F:\VICON\USERDATA\INSTALL\rory3\rory3.ASF
:FULLY-SPECIFIED
:DEGREES
1632
root 8.12438 19.1334 -0.120605 50.2145 -61.939 -42.7856
lowerback 14.6347 0.465317 -9.06548
upperback 6.27268 -1.29517 -7.75038
thorax -1.52681 -0.87872 -2.88074
lowerneck -11.9368 11.2097 -1.38988
upperneck 20.0636 15.058 1.66028
head 7.9167 7.02762 2.25019
rclavicle -9.54166e-015 -6.36111e-014
rhumerus -2.08596 40.7569 -81.7904
rradius 116.945
rwrist -8.04988
rhand -49.0749 5.79617
rfingers 7.12502
rthumb -21.701 -23.0075
lclavicle -9.54166e-015 -6.36111e-014
lhumerus 20.0527 -14.5345 76.8441
lradius 24.1809
lwrist 1.13672
lhand -24.5647 13.3892
lfingers 7.12502
lthumb 1.93194 43.3602
rfemur -28.4664 19.0442 15.6475
rtibia 20.5068
rfoot 20.9789 -17.7202
rtoes -0.774533
lfemur -26.0936 3.89536 -1.89285
ltibia 31.3781
lfoot -18.3661 18.8774
ltoes 13.0681
1633
root 8.11974 19.1311 -0.10943 50.0172 -61.8804 -42.6204
lowerback 14.6258 0.379887 -8.88239
upperback 6.30081 -1.37557 -7.75259
thorax -1.49662 -0.916051 -2.97168
lowerneck -11.9395 11.2859 -1.2854
upperneck 20.0917 15.1665 1.53733
head 7.94406 7.07186 2.20937
rclavicle 6.36111e-015 -1.90833e-014
rhumerus -2.57702 39.8517 -81.764
rradius 117.603
rwrist -8.85663
rhand -48.4705 5.7828
rfingers 7.12502
rthumb -21.1204 -23.0869
lclavicle 6.36111e-015 -1.90833e-014
lhumerus 19.4921 -15.2881 77.0522
lradius 25.2792
lwrist 1.80257
lhand -24.5978 13.829
lfingers 7.12502
lthumb 1.90004 43.8002
rfemur -28.3998 18.874 15.7056
rtibia 20.6188
rfoot 20.8403 -17.7499
rtoes -0.518056
lfemur -26.0904 3.91993 -1.95508
ltibia 31.4347
lfoot -18.3103 18.7257
ltoes 12.9797
1634
root 8.11527 19.1304 -0.0993672 49.7682 -61.8433 -42.3645
lowerback 14.611 0.29343 -8.76289
upperback 6.32901 -1.4663 -7.76676
thorax -1.46183 -0.959655 -3.03891
lowerneck -12.0042 11.4127 -0.979694
upperneck 20.2084 15.3398 1.25528
head 8.04204 7.13983 2.10637
rclavicle -3.18055e-014 -6.36111e-015
rhumerus -3.0603 39.0112 -81.7664
rradius 118.254
rwrist -9.44168
rhand -48.2854 4.94466
rfingers 7.12502
rthumb -20.9426 -23.9448
lclavicle -3.18055e-014 -6.36111e-015
lhumerus 18.8619 -15.8939 77.3714
lradius 26.4809
lwrist 2.43173
lhand -25.0145 14.7775
lfingers 7.12502
lthumb 1.49752 44.752
rfemur -28.389 18.7656 15.6867
rtibia 20.7564
rfoot 20.7842 -17.6647
rtoes -0.697792
lfemur -26.1031 3.84523 -2.05231
ltibia 31.4563
lfoot -18.2705 18.691
ltoes 13.1619
1635
root 8.11005 19.1306 -0.0897243 49.499 -61.8412 -42.0408
lowerback 14.5711 0.216704 -8.75699
upperback 6.32344 -1.55573 -7.74241
thorax -1.44507 -1.00278 -3.0021
lowerneck -11.9309 11.4948 -0.808421
upperneck 20.1602 15.4673 0.998702
head 8.04864 7.18757 2.00881
rclavicle -1.27222e-014 -5.08889e-014
rhumerus -3.59168 38.2171 -81.7224
rradius 118.928
rwrist -9.79747
rhand -48.1065 4.28545
rfingers 7.12502
rthumb -20.7707 -24.6229
lclavicle -1.27222e-014 -5.08889e-014
lhumerus 18.1232 -16.3879 77.7957
lradius 27.7516
lwrist 3.10091
lhand -25.1901 15.5081
lfingers 7.12502
lthumb 1.32799 45.4837
rfemur -28.428 18.6402 15.5865
rtibia 20.9215
rfoot 20.7027 -17.5457
rtoes -0.817493
lfemur -26.1243 3.66 -2.1838
ltibia 31.4408
lfoot -18.1972 18.8018
ltoes 12.9121
1636
root 8.10557 19.1302 -0.0852893 49.2764 -61.8986 -41.7554
lowerback 14.563 0.18288 -8.85626
upperback 6.27821 -1.60983 -7.6845
thorax -1.4833 -1.02796 -2.87614
lowerneck -11.8036 11.5307 -0.875461
upperneck 20.0351 15.5362 0.93559
head 7.98377 7.21527 1.99088
rclavicle -4.77083e-014 -7.95139e-014
rhumerus -4.18264 37.3852 -81.6439
rradius 119.644
rwrist -10.2826
rhand -47.9084 4.55013
rfingers 7.12502
rthumb -20.5804 -24.3789
lclavicle -4.77083e-014 -7.95139e-014
lhumerus 17.3873 -16.8473 78.2048
lradius 29.0888
lwrist 3.82474
lhand -25.3431 16.0284
lfingers 7.12502
lthumb 1.18019 46.0049
rfemur -28.5345 18.7083 15.3833
rtibia 21.1086
rfoot 20.5195 -17.6779
rtoes -0.416835
lfemur -26.1363 3.5665 -2.33975
ltibia 31.4026
lfoot -18.1787 18.8531
ltoes 12.8531
1637
root 8.10006 19.1325 -0.0824341 49.0632 -61.8772 -41.4513
lowerback 14.5138 0.143047 -8.88532
upperback 6.24443 -1.65366 -7.61764
thorax -1.48932 -1.04758 -2.7815
lowerneck -11.7475 11.5309 -0.951016
upperneck 20.0287 15.5578 0.89243
head 7.96919 7.21627 1.98588
rclavicle -1.27222e-014 -8.5875e-014
rhumerus -4.72235 36.5156 -81.5786
rradius 120.307
rwrist -10.8056
rhand -47.7732 5.15356
rfingers 7.12502
rthumb -20.4505 -23.7895
lclavicle -1.27222e-014 -8.5875e-014
lhumerus 16.6434 -17.196 78.7096
lradius 30.4453
lwrist 4.42156
lhand -25.5564 16.4519
lfingers 7.12502
lthumb 0.974205 46.4294
rfemur -28.6698 18.8155 15.202
rtibia 21.3055
rfoot 20.2447 -17.8463
rtoes 0.0933175
lfemur -26.2062 3.5565 -2.45282
ltibia 31.3517
lfoot -18.0927 18.8347
ltoes 12.6032
1638
root 8.09487 19.1329 -0.0759308 48.7554 -61.7504 -41.1466
lowerback 14.5323 0.0426493 -8.77026
upperback 6.26666 -1.76122 -7.54718
thorax -1.47604 -1.09811 -2.75284
lowerneck -11.7486 11.5688 -1.02935
upperneck 20.081 15.6294 0.870385
head 7.9816 7.23942 1.999
rclavicle -2.54444e-014 -6.36111e-014
rhumerus -5.18886 35.7458 -81.4988
rradius 121.022
rwrist -11.3913
rhand -47.318 5.50693
rfingers 7.12502
rthumb -20.013 -23.4824
lclavicle -2.54444e-014 -6.36111e-014
lhumerus 15.7899 -17.5902 79.1446
lradius 31.9607
lwrist 4.87285
lhand -25.9675 17.0218
lfingers 7.12502
lthumb 0.577109 47.0007
rfemur -28.6895 18.7511 15.1932
rtibia 21.5245
rfoot 20.1264 -17.5662
rtoes -0.341035
lfemur -26.1817 3.37174 -2.47406
ltibia 31.2844
lfoot -18.0891 18.8052
ltoes 12.7289
1639
root 8.08529 19.1337 -0.0710588 48.5612 -61.6609 -41.037
lowerback 14.5735 0.0071943 -8.69738
upperback 6.2942 -1.79115 -7.43163
thorax -1.46738 -1.11164 -2.66471
lowerneck -11.7271 11.5891 -1.07812
upperneck 20.0624 15.6869 0.765262
head 7.97652 7.25323 1.97661
rclavicle 5.08889e-014 5.725e-014
rhumerus -5.69724 34.9514 -81.3128
rradius 121.805
rwrist -11.8288
rhand -46.9441 5.48269
rfingers 7.12502
rthumb -19.6536 -23.5438
lclavicle 5.08889e-014 5.725e-014
lhumerus 14.8369 -17.8418 79.7198
lradius 33.473
lwrist 5.02728
lhand -26.4908 17.3855
lfingers 7.12502
lthumb 0.071735 47.3653
rfemur -28.647 18.7771 15.2608
rtibia 21.7825
rfoot 20.0358 -17.2154
rtoes -0.933209
lfemur -26.009 3.21603 -2.43844
ltibia 31.1653
lfoot -18.0526 18.8222
ltoes 12.6377
1640
root 8.0739 19.136 -0.0662914 48.186 -61.6949 -40.6474
lowerback 14.577 -0.0135813 -8.83324
upperback 6.27076 -1.83093 -7.34135
thorax -1.48529 -1.13138 -2.4867
lowerneck -11.6356 11.5902 -1.23663
upperneck 20.0095 15.7193 0.741467
head 7.93144 7.25802 1.98535
rclavicle -3.18055e-014 8.26944e-014
rhumerus -6.22166 34.2209 -81.1255
rradius 122.601
rwrist -12.2138
rhand -46.4741 6.16575
rfingers 7.12502
rthumb -19.2016 -22.9063
lclavicle -3.18055e-014 8.26944e-014
lhumerus 13.871 -18.0725 80.262
lradius 35.0604
lwrist 5.56904
lhand -27.1005 17.8998
lfingers 7.12502
lthumb -0.517132 47.8789
rfemur -28.6642 18.7348 15.1071
rtibia 22.0594
rfoot 19.75 -17.1311
rtoes -0.910241
lfemur -25.8653 3.02369 -2.61243
ltibia 31.0052
lfoot -18.0888 18.8173
ltoes 12.9022
1641
root 8.05757 19.1413 -0.0589739 47.6829 -62.029 -40.005
lowerback 14.422 0.00717305 -9.2769
upperback 6.21303 -1.84712 -7.35579
thorax -1.44612 -1.14596 -2.25647
lowerneck -11.4454 11.6154 -1.2697
upperneck 19.8901 15.7775 0.602744
head 7.86757 7.27567 1.93432
rclavicle 8.5875e-014 0
rhumerus -6.81871 33.6102 -81.039
rradius 123.454
rwrist -12.6259
rhand -45.9184 6.65951
rfingers 7.12502
rthumb -18.6672 -22.4648
lclavicle 8.5875e-014 0
lhumerus 12.9217 -18.2784 80.712
lradius 36.688
lwrist 6.26154
lhand -27.8472 18.6453
lfingers 7.12502
lthumb -1.23833 48.6214
rfemur -28.7714 18.7338 14.6308
rtibia 22.3005
rfoot 19.4706 -16.9899
rtoes -1.16907
lfemur -25.7562 3.09465 -3.137
ltibia 30.8526
lfoot -18.0292 18.8004
ltoes 12.5556
1642
root 8.04654 19.1449 -0.0533394 47.1181 -62.184 -39.4211
lowerback 14.5053 -0.0251444 -9.42364
upperback 6.14942 -1.92945 -7.39569
thorax -1.55199 -1.18382 -2.20375
lowerneck -11.2237 11.6525 -1.24486
upperneck 19.8217 15.8355 0.485167
head 7.81815 7.29723 1.88187
rclavicle -6.67916e-014 -6.36111e-014
rhumerus -7.52151 33.0287 -81.107
rradius 124.376
rwrist -13.0336
rhand -45.3461 6.67837
rfingers 7.12502
rthumb -18.1167 -22.4979
lclavicle -6.67916e-014 -6.36111e-014
lhumerus 11.835 -18.3291 81.1917
lradius 38.4002
lwrist 6.74809
lhand -28.3794 19.5376
lfingers 7.12502
lthumb -1.75234 49.5101
rfemur -28.7361 18.6404 14.3496
rtibia 22.4788
rfoot 19.3638 -16.7535
rtoes -1.62371
lfemur -25.6314 3.11428 -3.50775
ltibia 30.7557
lfoot -18.0453 18.6927
ltoes 12.7376
1643
root 8.03478 19.1445 -0.0541832 47.1053 -62.0625 -39.5504
lowerback 14.6525 0.00783584 -9.13756
upperback 6.13865 -1.86747 -7.35769
thorax -1.65456 -1.14566 -2.32802
lowerneck -11.2077 11.6394 -1.19976
upperneck 19.9281 15.7939 0.571619
head 7.84698 7.28521 1.90183
rclavicle 3.49861e-014 -2.8625e-014
rhumerus -8.19635 32.2336 -81.1272
rradius 125.275
rwrist -13.3698
rhand -45.2274 7.0637
rfingers 7.12502
rthumb -18.0025 -22.1231
lclavicle 3.49861e-014 -2.8625e-014
lhumerus 10.7643 -18.5385 81.6903
lradius 40.1735
lwrist 7.1638
lhand -28.9665 20.3638
lfingers 7.12502
lthumb -2.31939 50.3309
rfemur -28.582 18.6866 14.5575
rtibia 22.5753
rfoot 19.2489 -16.7777
rtoes -1.4227
lfemur -25.4881 3.27263 -3.38649
ltibia 30.7653
lfoot -17.9634 18.5059
ltoes 12.7686
1644
root 8.02281 19.142 -0.0588161 47.3668 -61.7577 -39.9088
lowerback 14.6686 -0.0270553 -8.72151
upperback 6.16413 -1.84282 -7.21882
thorax -1.64824 -1.12655 -2.41284
lowerneck -11.243 11.658 -1.14486
upperneck 20.0173 15.8192 0.537354
head 7.89039 7.29325 1.89264
rclavicle -9.54166e-015 -3.18055e-014
rhumerus -8.70991 31.58 -81.0465
rradius 126.216
rwrist -13.7243
rhand -45.6484 6.91074
rfingers 7.12502
rthumb -18.4075 -22.2383
lclavicle -9.54166e-015 -3.18055e-014
lhumerus 9.79551 -18.5204 82.2087
lradius 41.857
lwrist 7.28053
lhand -29.3266 21.0217
lfingers 7.12502
lthumb -2.66712 50.9847
rfemur -28.4698 18.8748 14.9172
rtibia 22.5569
rfoot 19.0646 -16.978
rtoes -1.10335
lfemur -25.5175 3.24031 -2.97396
ltibia 30.9116
lfoot -17.9437 18.4478
ltoes 12.27
1645
root 8.01048 19.1355 -0.0599431 47.7738 -61.3386 -40.2001
lowerback 14.4748 -0.139797 -8.21494
upperback 6.16602 -1.86994 -6.98561
thorax -1.55363 -1.13096 -2.44173
lowerneck -11.352 11.6468 -1.45166
upperneck 20.0811 15.8391 0.679545
head 7.8919 7.29213 1.99032
rclavicle -9.54166e-015 -1.59028e-013
rhumerus -9.21831 31.1033 -80.8993
rradius 127.199
rwrist -14.0752
rhand -45.5521 6.2285
rfingers 7.12502
rthumb -18.3149 -22.9293
lclavicle -9.54166e-015 -1.59028e-013
lhumerus 8.83287 -18.3552 82.7939
lradius 43.6138
lwrist 7.32279
lhand -29.8358 21.6845
lfingers 7.12502
lthumb -3.15885 51.6408
rfemur -28.5472 18.9825 15.2533
rtibia 22.4872
rfoot 18.8448 -17.3456
rtoes -0.466868
lfemur -25.8464 3.3037 -2.54342
ltibia 31.1243
lfoot -17.8165 18.2894
ltoes 11.9302
1646
root 7.99728 19.1291 -0.0588748 48.4248 -60.8907 -40.6525
lowerback 14.3024 -0.090615 -7.62345
upperback 6.03878 -1.68948 -6.73498
thorax -1.61249 -1.02498 -2.53028
lowerneck -11.5815 11.4842 -1.82014
upperneck 20.5823 15.5824 1.29211
head 8.01639 7.18432 2.24357
rclavicle 6.36111e-015 -2.22639e-014
rhumerus -10.105 30.2868 -80.7946
rradius 128.186
rwrist -14.3411
rhand -44.6217 6.48573
rfingers 7.12502
rthumb -17.4196 -22.7537
lclavicle 6.36111e-015 -2.22639e-014
lhumerus 7.75842 -18.6035 83.5274
lradius 45.3958
lwrist 7.12696
lhand -30.1196 22.541
lfingers 7.12502
lthumb -3.43292 52.4931
rfemur -28.7494 19.0028 15.6733
rtibia 22.4678
rfoot 18.6395 -17.578
rtoes -0.0124166
lfemur -26.2455 3.44458 -2.04045
ltibia 31.3054
lfoot -17.8531 18.0797
ltoes 12.3069
